<svg width="423" height="136" viewBox="0 0 423 136" fill="none" xmlns="http://www.w3.org/2000/svg">
<path d="M100.254 0L48.7167 104.788L29.8397 68.3325H0L32.1496 132.846H63.8637L130.075 0H100.254Z" fill="#4880F0"/>
<path fill-rule="evenodd" clip-rule="evenodd" d="M251.403 84.0051V71.657H261.835V64.3051C261.835 58.492 262.65 53.7427 264.316 50.0953C265.982 46.4479 268.576 43.7313 272.154 41.9835C275.714 40.2358 280.182 39.3619 285.578 39.3619C287.32 39.3619 288.873 39.4189 290.236 39.5519C291.599 39.6849 292.849 39.8369 293.966 40.0458C295.083 40.2548 296.011 40.5208 296.768 40.8437V54.3126C295.443 53.5718 293.947 53.0778 292.281 52.8119C290.615 52.5649 289.252 52.4319 288.191 52.4319C284.802 52.4319 282.322 53.4958 280.807 55.6044C279.273 57.7131 278.497 60.8666 278.497 65.008V71.657H296.882V84.0051H278.497V134.708H261.854L261.835 134.746V84.0051H251.403ZM222.945 43.3703V60.2017H242.069V43.3703H222.945ZM224.063 71.6569V134.746H240.952V71.6569H224.063ZM129.999 136C123.051 136 117.106 134.632 112.164 131.878C107.241 129.142 103.473 125.286 100.86 120.346C98.2475 115.407 96.941 109.727 96.941 103.325C96.941 96.923 98.2096 91.1479 100.728 86.2467C103.246 81.3455 106.919 77.5081 111.728 74.7155C116.538 71.9229 122.331 70.5361 129.128 70.5361C135.926 70.5361 141.417 71.8849 146.15 74.5825C150.865 77.2801 154.5 81.0985 157.018 86.0568C159.536 91.015 160.805 96.8091 160.805 103.439V107.295H113.584C113.906 109.966 114.549 112.277 115.515 114.229C116.954 117.174 118.98 119.378 121.536 120.84C124.092 122.303 127.008 123.025 130.227 123.025C132.802 123.025 135.074 122.607 137.062 121.771C139.05 120.935 140.678 119.815 141.985 118.409C143.253 116.984 144.162 115.407 144.654 113.678H160.312C159.555 118.01 157.889 121.847 155.276 125.21C152.663 128.572 149.255 131.213 145.033 133.131C140.811 135.031 135.793 136 129.999 136ZM115.515 91.2239C114.794 92.7076 114.254 94.4095 113.892 96.3342H145.343C145.004 94.4612 144.466 92.7588 143.726 91.2239C142.344 88.3934 140.47 86.2277 138.065 84.7459C135.661 83.2452 132.84 82.5043 129.621 82.5043C126.402 82.5043 123.789 83.2072 121.366 84.613C118.923 86.0377 116.973 88.2224 115.515 91.2239ZM173.244 134.746V71.6569H189.035V86.7134C189.25 86.1055 189.477 85.5129 189.717 84.9359C191.591 80.4146 194.204 76.9571 197.536 74.5825C200.888 72.2078 204.939 71.03 209.654 71.03C210.222 71.03 210.885 71.049 211.642 71.087C212.399 71.125 213.043 71.239 213.63 71.391V87.7285C209.9 87.7285 206.568 87.9944 203.633 88.5453C200.698 89.0773 198.218 90.0461 196.23 91.4139C194.242 92.7817 192.727 94.7384 191.705 97.265C190.663 99.8106 190.152 103.059 190.152 107.048V134.727H173.263L173.244 134.746ZM296.768 115.92V134.746H314.793V115.92H296.768ZM352.68 135.867C348.552 135.867 344.747 135.107 341.32 133.568C337.893 132.03 334.901 129.807 332.364 126.9C329.827 123.994 327.896 120.517 326.532 116.49C325.169 112.463 324.487 108.036 324.487 103.211C324.487 96.6381 325.661 90.939 328.028 86.0757C330.395 81.2125 333.651 77.4131 337.855 74.6585C342.039 71.9229 346.905 70.5361 352.453 70.5361C356.675 70.5361 360.386 71.334 363.567 72.9108C366.748 74.4875 369.436 76.7292 371.633 79.6357C372.185 80.3663 372.702 81.1316 373.185 81.9314V71.676H389.09V134.765H373.185V134.746V124.705C371.462 127.561 369.316 129.917 366.748 131.764C362.942 134.499 358.246 135.886 352.699 135.886L352.68 135.867ZM357.148 122.531C360.216 122.531 362.904 121.752 365.233 120.213C367.543 118.675 369.342 116.452 370.629 113.545C371.917 110.639 372.56 107.181 372.56 103.192C372.56 100.115 372.182 97.398 371.443 95.0234C370.686 92.6487 369.645 90.635 368.281 88.9823C366.899 87.3105 365.29 86.0568 363.434 85.1829C361.579 84.309 359.477 83.8721 357.167 83.8721C354.1 83.8721 351.411 84.6509 349.082 86.1897C346.754 87.7285 344.974 89.9321 343.686 92.8007C342.399 95.6693 341.755 99.1457 341.755 103.211C341.755 107.276 342.399 110.658 343.686 113.565C344.974 116.471 346.772 118.694 349.082 120.232C351.392 121.771 354.1 122.55 357.167 122.55L357.148 122.531ZM403.877 43.3703V60.2017H423V43.3703H403.877ZM404.994 71.6569V134.746H421.883V71.6569H404.994Z" fill="#4880F0"/>
</svg>
